<svg width="23" height="39" viewBox="0 0 23 39" fill="none" xmlns="http://www.w3.org/2000/svg">
<path d="M21.2487 0.0081146L16.1912 0C10.5094 0 6.83752 3.7672 6.83752 9.59795V14.0233H1.75251C1.3131 14.0233 0.957275 14.3795 0.957275 14.8189V21.2306C0.957275 21.67 1.31351 22.0259 1.75251 22.0259H6.83752V38.2048C6.83752 38.6442 7.19335 39 7.63275 39H14.2673C14.7067 39 15.0625 38.6438 15.0625 38.2048V22.0259H21.0081C21.4475 22.0259 21.8033 21.67 21.8033 21.2306L21.8057 14.8189C21.8057 14.6079 21.7217 14.4059 21.5728 14.2565C21.4239 14.1072 21.2211 14.0233 21.0101 14.0233H15.0625V10.2719C15.0625 8.46881 15.4922 7.55348 17.8409 7.55348L21.2478 7.55226C21.6868 7.55226 22.0427 7.19603 22.0427 6.75703V0.803346C22.0427 0.364751 21.6872 0.00892606 21.2487 0.0081146Z" fill="black"/>
</svg>
