<svg width="35" height="35" viewBox="0 0 35 35" fill="none" xmlns="http://www.w3.org/2000/svg">
<g style="mix-blend-mode:darken">
<path d="M8.225 6.5625V9.34792H3.28125V12.075C3.28125 16.6396 4.6375 19.1844 7.89688 20.7667C9.1086 21.4182 10.227 22.23 11.2219 23.1802C12.0215 24.0331 12.9967 24.7024 14.0802 25.1417L15.3125 25.5208V28.824H13.4313C11.1563 28.824 10.3906 29.3417 10.3906 30.8802V31.9156H24.6094V30.9896C24.6094 29.4802 23.676 28.8021 21.5177 28.8021H19.6875V25.5208L20.9417 25.149C22.0267 24.7092 23.0023 24.0372 23.8 23.1802C24.8379 22.191 25.9997 21.3405 27.2563 20.65C28.232 20.1805 29.1033 19.5196 29.8186 18.7066C30.5338 17.8937 31.0783 16.9453 31.4198 15.9177C31.6519 14.6454 31.7594 13.3536 31.7406 12.0604V9.35521H26.775V6.5625H8.225ZM17.5 11.2073L18.9948 14.299H22.5969L19.775 16.9021L20.5844 20.2271L17.5 18.5719L14.4156 20.249L15.225 16.924L12.3958 14.3208H16.0052L17.5 11.2073ZM5.87708 12.1333H8.18125V17.8792C7.94063 18.025 7.18958 17.15 6.64271 16.151C6.33223 15.3862 6.13332 14.5808 6.05208 13.7594L5.87708 12.1333ZM26.8188 12.1333H29.3271L29.1156 13.7375C29.0659 15.0729 28.529 16.3439 27.6063 17.3104C27.3892 17.6063 27.1137 17.8544 26.7969 18.0396L26.8188 12.1333Z" stroke="black" stroke-width="1.5" stroke-linecap="round" stroke-linejoin="round"/>
</g>
</svg>
