<svg width="27" height="27" viewBox="0 0 27 27" fill="none" xmlns="http://www.w3.org/2000/svg">
<path d="M12.1514 1.31901C12.564 1.10979 13.0281 1 13.5 1C13.9719 1 14.436 1.10979 14.8486 1.31901L25.2861 6.61287C25.5025 6.72275 25.6828 6.88347 25.8083 7.07836C25.9338 7.27326 26 7.49525 26 7.72136V18.1658C25.9999 18.6181 25.8673 19.0622 25.616 19.452C25.3647 19.8418 25.0039 20.1631 24.5708 20.3827L14.8486 25.3164C14.436 25.5256 13.9719 25.6354 13.5 25.6354C13.0281 25.6354 12.564 25.5256 12.1514 25.3164L2.42917 20.3827C1.99633 20.1632 1.6356 19.8421 1.38433 19.4525C1.13305 19.063 1.00036 18.6191 1 18.167V7.72136C0.99999 7.49525 1.06617 7.27326 1.19169 7.07836C1.3172 6.88347 1.4975 6.72275 1.71389 6.61287L12.1528 1.31901H12.1514Z" stroke="black" stroke-width="1.5" stroke-linecap="round" stroke-linejoin="round"/>
<path d="M1 6.97559L13.5 13.3171M13.5 13.3171L26 6.97559M13.5 13.3171V26" stroke="black" stroke-width="1.5" stroke-linejoin="round"/>
<path d="M7.25008 10.1462L19.7501 3.80469M5.16675 13.7329L9.33341 15.8535" stroke="black" stroke-width="1.5" stroke-linecap="round" stroke-linejoin="round"/>
</svg>
