<svg width="22" height="27" viewBox="0 0 22 27" fill="none" xmlns="http://www.w3.org/2000/svg">
<path d="M1 11.975C1.00004 10.9152 1.4879 9.87355 2.41611 8.95133C3.34431 8.02912 4.68122 7.25781 6.29667 6.7125C6.37561 6.68592 6.44096 6.64829 6.48633 6.60327C6.5317 6.55825 6.55555 6.50738 6.55556 6.45563V1H15.4444V6.45563C15.4444 6.56063 15.5422 6.65812 15.7033 6.71187C17.3189 7.25724 18.656 8.02865 19.5842 8.95098C20.5124 9.87332 21.0002 10.9151 21 11.975V24.75C21 25.0815 20.7659 25.3995 20.3491 25.6339C19.9324 25.8683 19.3671 26 18.7778 26H3.22222C2.63285 26 2.06762 25.8683 1.65087 25.6339C1.23413 25.3995 1 25.0815 1 24.75V11.975Z" stroke="black" stroke-width="1.5" stroke-linecap="round" stroke-linejoin="round"/>
<path d="M6.5553 4.75H15.4442" stroke="black" stroke-width="1.5" stroke-linecap="round"/>
<path d="M20.9997 12.875H10.9997V22.25H20.9997M20.9997 23.5V11.625M6.5553 6V3.5M15.4442 6V3.5" stroke="black" stroke-width="1.5" stroke-linecap="round" stroke-linejoin="round"/>
</svg>
