<svg width="32" height="27" viewBox="0 0 32 27" fill="none" xmlns="http://www.w3.org/2000/svg">
<path d="M1 7C1 4.17157 1 2.75736 1.87868 1.87868C2.75736 1 4.17157 1 7 1H25C27.8284 1 29.2426 1 30.1213 1.87868C31 2.75736 31 4.17157 31 7V9.125C31 9.35733 31 9.47349 30.9808 9.57009C30.9019 9.96678 30.5918 10.2769 30.1951 10.3558C30.0985 10.375 29.9823 10.375 29.75 10.375H29.125C29.0089 10.375 28.9509 10.375 28.9018 10.3766C27.322 10.4283 26.0533 11.697 26.0016 13.2768C26 13.3259 26 13.3839 26 13.5V13.5C26 13.6161 26 13.6741 26.0016 13.7232C26.0533 15.303 27.322 16.5717 28.9018 16.6234C28.9509 16.625 29.0089 16.625 29.125 16.625H29.75C29.9823 16.625 30.0985 16.625 30.1951 16.6442C30.5918 16.7231 30.9019 17.0332 30.9808 17.4299C31 17.5265 31 17.6427 31 17.875V20C31 22.8284 31 24.2426 30.1213 25.1213C29.2426 26 27.8284 26 25 26H7C4.17157 26 2.75736 26 1.87868 25.1213C1 24.2426 1 22.8284 1 20V17.875C1 17.6427 1 17.5265 1.01921 17.4299C1.09812 17.0332 1.40822 16.7231 1.80491 16.6442C1.90151 16.625 2.01767 16.625 2.25 16.625H2.875C2.99106 16.625 3.04909 16.625 3.09816 16.6234C4.678 16.5717 5.94668 15.303 5.99839 13.7232C6 13.6741 6 13.6161 6 13.5V13.5C6 13.3839 6 13.3259 5.99839 13.2768C5.94668 11.697 4.678 10.4283 3.09816 10.3766C3.04909 10.375 2.99106 10.375 2.875 10.375H2.25C2.01767 10.375 1.90151 10.375 1.80491 10.3558C1.40822 10.2769 1.09812 9.96678 1.01921 9.57009C1 9.47349 1 9.35733 1 9.125V7Z" stroke="#222222" stroke-width="1.5"/>
<path d="M16 17.675L15.3203 17.015C12.9062 14.68 11.3125 13.135 11.3125 11.25C11.3125 9.705 12.4469 8.5 13.8906 8.5C14.7062 8.5 15.4891 8.905 16 9.54C16.5109 8.905 17.2937 8.5 18.1094 8.5C19.5531 8.5 20.6875 9.705 20.6875 11.25C20.6875 13.135 19.0938 14.68 16.6797 17.015L16 17.675Z" fill="black"/>
</svg>
