<svg width="25" height="25" viewBox="0 0 25 25" fill="none" xmlns="http://www.w3.org/2000/svg">
<path d="M25 12.5C25 13.2422 24.5655 13.9116 23.9463 14.522C23.5758 14.8862 23.1438 15.2354 22.7632 15.5895C22.4593 15.8721 22.1855 16.1497 22.0574 16.4586C21.923 16.7814 21.9142 17.182 21.9256 17.6052C21.9394 18.1277 21.9959 18.679 21.9996 19.194C22.0072 20.0618 21.8452 20.8317 21.339 21.339C20.8317 21.8452 20.0618 22.0072 19.194 21.9996C18.679 21.9946 18.1277 21.9394 17.6065 21.9256C17.1833 21.9142 16.7814 21.923 16.4586 22.0574C16.1497 22.1855 15.8721 22.4593 15.5895 22.7632C15.2354 23.1438 14.8862 23.5758 14.522 23.945C13.9116 24.5655 13.2422 25 12.5 25C11.7578 25 11.0884 24.5655 10.478 23.945C10.1138 23.5758 9.76464 23.1438 9.41048 22.7632C9.1279 22.4593 8.84909 22.1855 8.54139 22.0574C8.21863 21.923 7.81674 21.9142 7.39476 21.9256C6.8723 21.9394 6.32096 21.9946 5.80604 21.9996C4.93821 22.0072 4.16709 21.8452 3.66096 21.339C3.15357 20.8317 2.99282 20.0618 3.00035 19.194C3.00412 18.679 3.06064 18.1277 3.07445 17.6052C3.08575 17.182 3.07696 16.7814 2.94258 16.4574C2.81448 16.1497 2.54069 15.8721 2.23676 15.5895C1.85748 15.2354 1.42545 14.8862 1.05496 14.522C0.435799 13.9116 0 13.2422 0 12.5C0 11.7578 0.435799 11.0884 1.05496 10.478C1.42545 10.1138 1.85748 9.76464 2.23676 9.41048C2.54069 9.1279 2.81448 8.85035 2.94258 8.54265C3.07696 8.21863 3.08575 7.81799 3.07445 7.39476C3.06064 6.8723 3.00412 6.32096 3.00035 5.80604C2.99282 4.93821 3.15357 4.16834 3.66096 3.66096C4.16709 3.15483 4.93821 2.99282 5.80604 3.00035C6.32096 3.00538 6.8723 3.06064 7.39476 3.07445C7.81674 3.08575 8.21863 3.07696 8.54139 2.94258C8.84909 2.81448 9.1279 2.54069 9.41048 2.23676C9.76464 1.85622 10.1138 1.42419 10.478 1.05496C11.0884 0.434543 11.7578 0 12.5 0C13.2422 0 13.9116 0.434543 14.522 1.05496C14.8862 1.42419 15.2354 1.85622 15.5895 2.23676C15.8721 2.54069 16.1497 2.81448 16.4586 2.94258C16.7814 3.07696 17.1833 3.08575 17.6065 3.07445C18.1277 3.06064 18.679 3.00538 19.194 3.00035C20.0618 2.99282 20.8317 3.15483 21.339 3.66096C21.8452 4.16834 22.0072 4.93821 21.9996 5.80604C21.9959 6.32096 21.9394 6.8723 21.9256 7.39476C21.9142 7.81799 21.923 8.21863 22.0574 8.54139C22.1855 8.85035 22.4593 9.1279 22.7632 9.41048C23.1438 9.76464 23.5758 10.1138 23.9463 10.478C24.5655 11.0884 25 11.7578 25 12.5ZM23.7441 12.5C23.7441 12.2639 23.6336 12.0542 23.4854 11.8494C23.2794 11.5656 22.9981 11.3006 22.7042 11.0381C21.972 10.3838 21.1908 9.73199 20.897 9.02366C20.593 8.28896 20.6747 7.26665 20.7262 6.28831C20.7475 5.8927 20.7601 5.50713 20.7073 5.16427C20.6709 4.92439 20.6069 4.70587 20.4511 4.55014C20.2941 4.39315 20.0756 4.3291 19.8357 4.29268C19.4929 4.23993 19.1073 4.25249 18.7117 4.27384C17.7333 4.32533 16.711 4.40696 15.9776 4.10303C15.268 3.80915 14.6162 3.02924 13.9619 2.29579C13.6994 2.00191 13.4344 1.72059 13.1506 1.51462C12.9458 1.36642 12.7361 1.2559 12.5 1.2559C12.2651 1.2559 12.0542 1.36642 11.8494 1.51462C11.5656 1.72059 11.3006 2.00191 11.0381 2.29579C10.3838 3.02924 9.73199 3.80915 9.02241 4.10303C8.28896 4.40696 7.26665 4.32533 6.28831 4.27384C5.8927 4.25249 5.50713 4.23993 5.16427 4.29268C4.92314 4.3291 4.70587 4.39315 4.54888 4.55014C4.39189 4.70587 4.3291 4.92439 4.29268 5.16427C4.23993 5.50713 4.25249 5.8927 4.27258 6.28831C4.32533 7.26665 4.40696 8.28896 4.10303 9.02241C3.80915 9.73199 3.02924 10.3838 2.29579 11.0381C2.00191 11.3006 1.72059 11.5656 1.51462 11.8494C1.36642 12.0542 1.2559 12.2639 1.2559 12.5C1.2559 12.7361 1.36642 12.9458 1.51462 13.1506C1.72059 13.4344 2.00191 13.6994 2.29579 13.9619C3.02924 14.6162 3.80915 15.268 4.10303 15.9776C4.40696 16.711 4.32533 17.7333 4.27258 18.7117C4.25249 19.1073 4.23993 19.4929 4.29268 19.8357C4.3291 20.0756 4.39189 20.2941 4.54888 20.4499C4.70587 20.6069 4.92314 20.6709 5.16427 20.7073C5.50713 20.7601 5.8927 20.7475 6.28831 20.7262C7.26665 20.6747 8.28896 20.593 9.02241 20.897C9.73199 21.1908 10.3838 21.9708 11.0381 22.7042C11.3006 22.9981 11.5656 23.2794 11.8494 23.4854C12.0542 23.6336 12.2651 23.7441 12.5 23.7441C12.7361 23.7441 12.9458 23.6336 13.1506 23.4854C13.4344 23.2794 13.6994 22.9981 13.9619 22.7042C14.6162 21.9708 15.268 21.1908 15.9776 20.897C16.711 20.593 17.7333 20.6747 18.7117 20.7262C19.1073 20.7475 19.4929 20.7601 19.8357 20.7073C20.0756 20.6709 20.2941 20.6069 20.4511 20.4499C20.6069 20.2941 20.6709 20.0756 20.7073 19.8357C20.7601 19.4929 20.7475 19.1073 20.7262 18.7117C20.6747 17.7333 20.593 16.711 20.897 15.9763C21.1908 15.268 21.972 14.6162 22.7042 13.9619C22.9981 13.6994 23.2794 13.4344 23.4854 13.1506C23.6336 12.9458 23.7441 12.7361 23.7441 12.5ZM10.5182 10.2871C10.3998 10.4054 10.2592 10.4993 10.1045 10.5633C9.94982 10.6273 9.78404 10.6602 9.61663 10.6602C9.44922 10.6601 9.28346 10.6271 9.12882 10.563C8.97417 10.4988 8.83367 10.4049 8.71534 10.2865C8.597 10.1681 8.50315 10.0275 8.43914 9.8728C8.37513 9.71811 8.34221 9.55233 8.34227 9.38492C8.34233 9.21751 8.37536 9.05175 8.43948 8.8971C8.5036 8.74246 8.59755 8.60196 8.71597 8.48362C8.95512 8.24463 9.27942 8.11044 9.61752 8.11056C9.95562 8.11067 10.2798 8.2451 10.5188 8.48425C10.7578 8.72341 10.892 9.04771 10.8919 9.38581C10.8918 9.72391 10.7573 10.0481 10.5182 10.2871ZM16.1333 7.97875C16.2518 7.86436 16.4104 7.80107 16.575 7.8025C16.7397 7.80393 16.8972 7.86997 17.0136 7.9864C17.13 8.10283 17.1961 8.26033 17.1975 8.42497C17.1989 8.58962 17.1356 8.74824 17.0213 8.86667L8.86667 17.0213C8.74824 17.1356 8.58962 17.1989 8.42497 17.1975C8.26033 17.1961 8.10283 17.13 7.9864 17.0136C7.86997 16.8972 7.80393 16.7397 7.8025 16.575C7.80107 16.4104 7.86436 16.2518 7.97875 16.1333L16.1333 7.97875ZM14.4818 14.7142C14.6002 14.5958 14.7408 14.502 14.8955 14.438C15.0502 14.3739 15.216 14.341 15.3834 14.3411C15.5508 14.3411 15.7165 14.3742 15.8712 14.4383C16.0258 14.5024 16.1663 14.5964 16.2847 14.7148C16.403 14.8332 16.4969 14.9738 16.5609 15.1285C16.6249 15.2831 16.6578 15.4489 16.6577 15.6163C16.6577 15.7838 16.6246 15.9495 16.5605 16.1042C16.4964 16.2588 16.4025 16.3993 16.284 16.5176C16.0449 16.7566 15.7206 16.8908 15.3825 16.8907C15.0444 16.8906 14.7202 16.7562 14.4812 16.517C14.2422 16.2779 14.108 15.9536 14.1081 15.6155C14.1082 15.2774 14.2427 14.9531 14.4818 14.7142Z" fill="black"/>
</svg>
