<svg width="39" height="39" viewBox="0 0 39 39" fill="none" xmlns="http://www.w3.org/2000/svg">
<path d="M32.825 4.46875H28.925C27.7599 4.46875 26.8125 5.41613 26.8125 6.58125V10.4812C26.8125 11.6464 27.7599 12.5938 28.925 12.5938H32.825C33.9901 12.5938 34.9375 11.6464 34.9375 10.4812V6.58125C34.9375 5.41613 33.9901 4.46875 32.825 4.46875ZM33.3125 10.4812C33.3125 10.7502 33.0939 10.9688 32.825 10.9688H28.925C28.6561 10.9688 28.4375 10.7502 28.4375 10.4812V6.58125C28.4375 6.31231 28.6561 6.09375 28.925 6.09375H32.825C33.0939 6.09375 33.3125 6.31231 33.3125 6.58125V10.4812Z" fill="black"/>
<path d="M30.7125 0.40625H8.2875C3.718 0.40625 0 4.13481 0 8.71894V14.2188V15.8438V30.2819C0 34.8652 3.718 38.5938 8.2875 38.5938H30.7125C35.282 38.5938 39 34.8652 39 30.2819V15.8438V14.2188V8.71894C39 4.13481 35.282 0.40625 30.7125 0.40625ZM37.375 30.2819C37.375 33.969 34.3858 36.9688 30.7125 36.9688H8.2875C4.61338 36.9688 1.625 33.969 1.625 30.2819V15.8438H11.5546C9.44125 17.9099 8.125 20.787 8.125 23.9688C8.125 30.2412 13.2275 35.3438 19.5 35.3438C25.7725 35.3438 30.875 30.2412 30.875 23.9688C30.875 20.787 29.5588 17.9099 27.4454 15.8438H37.375V30.2819ZM29.25 23.9688C29.25 29.3451 24.8763 33.7188 19.5 33.7188C14.1237 33.7188 9.75 29.3451 9.75 23.9688C9.75 18.5924 14.1237 14.2188 19.5 14.2188C24.8763 14.2188 29.25 18.5924 29.25 23.9688ZM25.3289 14.2188C23.6218 13.1942 21.632 12.5938 19.5 12.5938C17.368 12.5938 15.3782 13.1942 13.6711 14.2188H1.625V8.71894C1.625 5.031 4.61419 2.03125 8.2875 2.03125H30.7125C34.3858 2.03125 37.375 5.031 37.375 8.71894V14.2188H25.3289Z" fill="black"/>
<path d="M12.1875 23.9688C12.1875 28.0004 15.4676 31.2812 19.5 31.2812C23.5324 31.2812 26.8125 28.0004 26.8125 23.9688C26.8125 19.9371 23.5324 16.6562 19.5 16.6562C15.4676 16.6562 12.1875 19.9371 12.1875 23.9688ZM25.1875 23.9688C25.1875 27.105 22.6354 29.6562 19.5 29.6562C16.3646 29.6562 13.8125 27.105 13.8125 23.9688C13.8125 20.8325 16.3646 18.2812 19.5 18.2812C22.6354 18.2812 25.1875 20.8325 25.1875 23.9688Z" fill="black"/>
</svg>
