<svg width="29" height="28" viewBox="0 0 29 28" fill="none" xmlns="http://www.w3.org/2000/svg">
<path d="M27.7104 25.7899L21.3001 19.3899C23.2099 17.117 24.1681 14.1942 23.9755 11.2317C23.7826 8.26914 22.4534 5.49508 20.2652 3.4888C18.0768 1.48234 15.1985 0.398169 12.2304 0.462683C9.26207 0.526969 6.43321 1.7348 4.33436 3.83411C2.2355 5.93343 1.02721 8.762 0.962927 11.7301C0.898419 14.6984 1.98258 17.577 3.98904 19.765C5.9955 21.9531 8.76938 23.2824 11.7319 23.4753C14.6946 23.6679 17.6176 22.7097 19.8902 20.7998L26.2902 27.2101C26.4779 27.3994 26.7335 27.5059 27.0002 27.5059C27.267 27.5059 27.5226 27.3994 27.7103 27.2101C27.8996 27.0224 28.0061 26.7668 28.0061 26.5001C28.0061 26.2333 27.8996 25.9777 27.7103 25.79L27.7104 25.7899ZM3.00007 12.0002C3.00007 9.48057 4.00099 7.06428 5.78264 5.28308C7.56413 3.50137 9.98041 2.50051 12.4998 2.50051C15.0192 2.50051 17.4357 3.50143 19.2169 5.28308C20.9986 7.06457 21.9995 9.48085 21.9995 12.0002C21.9995 14.5196 20.9986 16.9362 19.2169 18.7174C17.4354 20.4991 15.0192 21.4999 12.4998 21.4999C9.98104 21.4973 7.5663 20.4955 5.7855 18.7145C4.00447 16.9334 3.0027 14.5187 3.00001 12.0002L3.00007 12.0002Z" fill="black"/>
<path d="M16.5 11H13.5V7.99999C13.5 7.64262 13.3094 7.3125 13 7.13393C12.6906 6.95536 12.3094 6.95536 12 7.13393C11.6906 7.3125 11.5 7.64263 11.5 7.99999V11H8.49999C8.14262 11 7.8125 11.1906 7.63393 11.5C7.45536 11.8094 7.45536 12.1906 7.63393 12.5C7.8125 12.8094 8.14263 13 8.49999 13H11.5V16C11.5 16.3574 11.6906 16.6875 12 16.866C12.3094 17.0446 12.6906 17.0446 13 16.866C13.3094 16.6875 13.5 16.3573 13.5 16V13H16.5C16.8574 13 17.1875 12.8094 17.366 12.5C17.5446 12.1906 17.5446 11.8094 17.366 11.5C17.1875 11.1906 16.8573 11 16.5 11Z" fill="black"/>
</svg>
