<svg width="35" height="39" viewBox="0 0 35 39" fill="none" xmlns="http://www.w3.org/2000/svg">
<path d="M27.1736 6.79864C25.7853 5.24379 24.9508 3.21639 24.9508 1H23.2113M27.1736 6.79864C28.4387 8.21617 30.1517 9.24708 32.1024 9.65075C32.7085 9.77962 33.341 9.84842 34 9.84842V16.2053C30.6263 16.2053 27.4983 15.1488 24.9504 13.3619V26.2908C24.9504 32.751 19.5734 38 12.9753 38C9.52236 38 6.40334 36.5566 4.21565 34.263C2.22125 32.167 1 29.3662 1 26.2908C1 19.9251 6.21886 14.7364 12.6853 14.599M27.1736 6.79864C27.1399 6.77711 27.1062 6.75537 27.0727 6.73341M8.54726 29.4006C7.89711 28.5245 7.51052 27.4507 7.51052 26.2823C7.51052 23.3358 9.9618 20.9389 12.9754 20.9389C13.5377 20.9389 14.0824 21.0333 14.592 21.1879V14.6936C14.0648 14.6248 13.5289 14.5818 12.9754 14.5818C12.8787 14.5818 12.1003 14.6324 12.0036 14.6324M23.202 1H18.4401L18.4314 26.4884C18.3259 29.3405 15.9185 31.6343 12.9753 31.6343C11.1478 31.6343 9.53993 30.7495 8.53834 29.4093" stroke="black" stroke-width="1.5" stroke-linejoin="round"/>
</svg>
