<?xml version="1.0" standalone="no"?>
<!DOCTYPE svg PUBLIC "-//W3C//DTD SVG 20010904//EN"
 "http://www.w3.org/TR/2001/REC-SVG-20010904/DTD/svg10.dtd">
<svg version="1.0" xmlns="http://www.w3.org/2000/svg"
 width="121.000000pt" height="117.000000pt" viewBox="0 0 121.000000 117.000000"
 preserveAspectRatio="xMidYMid meet">

<g transform="translate(0.000000,117.000000) scale(0.100000,-0.100000)"
fill="#000000" stroke="none">
<path d="M378 1131 c-165 -53 -293 -194 -329 -362 -16 -73 -6 -201 21 -272 49
-130 173 -245 306 -287 142 -43 312 -15 436 73 16 10 35 -5 156 -126 135 -135
162 -153 190 -125 27 27 9 54 -123 188 -74 75 -135 139 -135 143 0 3 14 28 30
54 51 80 73 169 68 276 -6 112 -32 184 -96 270 -119 156 -340 227 -524 168z
m304 -103 c249 -115 310 -445 118 -637 -194 -194 -521 -134 -638 117 -24 50
-27 69 -27 162 0 94 3 111 27 160 51 103 140 183 241 216 70 23 210 14 279
-18z"/>
<path d="M410 713 c-78 -4 -100 -14 -100 -44 0 -40 35 -48 209 -48 90 1 175 5
188 10 25 9 32 49 11 66 -15 12 -199 21 -308 16z"/>
</g>
</svg>
