<svg width="39" height="29" viewBox="0 0 39 29" fill="none" xmlns="http://www.w3.org/2000/svg">
<path d="M37.4799 3.13247C36.0721 1.45899 33.4729 0.776367 28.5091 0.776367H10.4905C5.41307 0.776367 2.76988 1.50303 1.36739 3.2847C0 5.02183 0 7.58136 0 11.1238V17.8757C0 24.7386 1.6224 28.2231 10.4905 28.2231H28.5093C32.8138 28.2231 35.1991 27.6207 36.7423 26.1439C38.3248 24.6294 39 22.1567 39 17.8757V11.1238C39 7.388 38.8942 4.81337 37.4799 3.13247ZM25.0381 15.4319L16.8559 19.7082C16.673 19.8038 16.473 19.8513 16.2732 19.8513C16.047 19.8513 15.8213 19.7904 15.6214 19.6693C15.245 19.4413 15.0151 19.0333 15.0151 18.5932V10.0681C15.0151 9.62874 15.2443 9.22112 15.62 8.99291C15.9958 8.7647 16.4632 8.7491 16.853 8.95165L25.0352 13.2004C25.4515 13.4165 25.713 13.8463 25.7136 14.3152C25.7141 14.7844 25.4538 15.2148 25.0381 15.4319Z" fill="black"/>
</svg>
